{"title":"Metal.Shifters.2011.BDRip.XviD-SPRiNTER.","uid":7006083,"size":753960712,"categoryP":"video","categoryS":"movies","magnet":"?xt=urn:btih:d70203280d233ff7e9fb52e9ab6c6ee9bec28e29&amp;dn=Metal.Shifters.2011.BDRip.XviD-SPRiNTER.&amp;tr=udp%3A%2F%2Ftracker.openbittorrent.com%3A80&amp;tr=udp%3A%2F%2Fopen.demonii.com%3A1337&amp;tr=udp%3A%2F%2Ftracker.coppersurfer.tk%3A6969&amp;tr=udp%3A%2F%2Fexodus.desync.com%3A6969","seeders":0,"leechers":1,"uploader":"moviesp2p","files":55,"time":1328230339,"description":"Metal.Shifters.2011.BDRip.XviD-SPRiNTER\n\n\n\nDate: 2012.01\n &lt;a href=&quot;\nhttp://www.imdb.com/title/tt1651894/&quot; rel=&quot;nofollow&quot; target=&quot;_NEW&quot;&gt;\nhttp://www.imdb.com/title/tt1651894/&lt;/a&gt;\n\nGenre: Sci-Fi\n\nSubtitles: English\n\n\nPlot\n\nAlien bacteria arrives on a meteorite and infects metal, animating a\ngiant iron statue that goes on a killing rampage in a small town.\n\n\nRelease notes\n\nEnjoy!\n\n\nDetails\n\nFormat: AVI\nFormat/Info: Audio Video Interleave\nFile size: 700 MiB\nDuration: 1h 30mn\nOverall bit rate mode: Variable\nOverall bit rate: 1 081 Kbps\nWriting application: VirtualDubMod 1.5.10.2 (build 2540/release)\nWriting library: VirtualDubMod build 2540/release\n\nVideo\nID: 0\nFormat: MPEG-4 Visual\nFormat profile: Advanced Simple@L5\nFormat settings, BVOP: 2\nFormat settings, QPel: No\nFormat settings, GMC: No warppoints\nFormat settings, Matrix: Default (H.263)\nCodec ID: XVID\nCodec ID/Hint: XviD\nDuration: 1h 30mn\nBit rate: 935 Kbps\nWidth: 576 pixels\nHeight: 320 pixels\nDisplay aspect ratio: 16:9\nFrame rate: 23.976 fps\nColor space: YUV\nChroma subsampling: 4:2:0\nBit depth: 8 bits\nScan type: Progressive\nCompression mode: Lossy\nBits/(Pixel*Frame): 0.212\nStream size: 606 MiB (86%)\nWriting library: XviD 61\n\nAudio\nID: 1\nFormat: MPEG Audio\nFormat version: Version 1\nFormat profile: Layer 3\nMode: Joint stereo\nMode extension: MS Stereo\nCodec ID: 55\nCodec ID/Hint: MP3\nDuration: 1h 30mn\nBit rate mode: Variable\nBit rate: 133 Kbps\nMinimum bit rate: 128 Kbps\nChannel(s): 2 channels\nSampling rate: 48.0 KHz\nCompression mode: Lossy\nStream size: 86.5 MiB (12%)\nAlignment: Aligned on interleaves\nInterleave, duration: 24 ms (0.58 video frame)\nInterleave, preload duration: 138 ms\nWriting library: LAME3.95\nEncoding settings: -m j -V 4 -q 3 -lowpass 18 --vbr-old -b 128","torrent":{"xt":"urn:btih:d70203280d233ff7e9fb52e9ab6c6ee9bec28e29","amp;dn":"Metal.Shifters.2011.BDRip.XviD-SPRiNTER.","amp;tr":["udp%3A%2F%2Ftracker.openbittorrent.com%3A80","udp%3A%2F%2Fopen.demonii.com%3A1337","udp%3A%2F%2Ftracker.coppersurfer.tk%3A6969","udp%3A%2F%2Fexodus.desync.com%3A6969"],"infoHash":"d70203280d233ff7e9fb52e9ab6c6ee9bec28e29","infoHashBuffer":{"type":"Buffer","data":[215,2,3,40,13,35,63,247,233,251,82,233,171,108,110,233,190,194,142,41]},"announce":[],"urlList":[]}}